<svg xmlns="http://www.w3.org/2000/svg" xmlns:xlink="http://www.w3.org/1999/xlink" width="150" height="150" viewBox="0 0 150 150"><defs><style>.a{fill:#fff;}.b{clip-path:url(#a);}.c{stroke:#000;}</style><clipPath id="a"><rect class="a" width="150" height="150" rx="4" transform="translate(22 30)"/></clipPath></defs><g class="b" transform="translate(-22 -30)"><g transform="translate(55.701 57.524)"><path class="c" d="M58.013,8.862a1.346,1.346,0,0,0-.76.7L48.053,29.3V3.348A1.349,1.349,0,0,0,46.7,2H30.526a1.349,1.349,0,0,0-1.348,1.348V33.464A25.851,25.851,0,0,0,14.464,48.739a.017.017,0,0,1,0,.008,25.615,25.615,0,1,0,49.768,8.529,25.4,25.4,0,0,0-1.389-8.289,1.36,1.36,0,0,0-.163-.492,25.131,25.131,0,0,0-4.893-8.186L69.471,15.257a1.355,1.355,0,0,0,.046-1.031,1.34,1.34,0,0,0-.7-.76L59.044,8.908A1.348,1.348,0,0,0,58.013,8.862Zm-19.4,71.332a22.926,22.926,0,0,1-21.908-29.66H60.523a22.926,22.926,0,0,1-21.908,29.66ZM66.457,15.339l-11.5,24.649a1.349,1.349,0,0,0,.247,1.5,22.642,22.642,0,0,1,4.3,6.349H17.731A23.157,23.157,0,0,1,30.977,35.667a1.348,1.348,0,0,0,.9-1.27V4.7H45.356V34.4a1.348,1.348,0,0,0,.957,1.29c.062.019.119.044.28.111a1.351,1.351,0,0,0,1.723-.682l10.81-23.194Z"/></g></g></svg>