<svg xmlns="http://www.w3.org/2000/svg" xmlns:xlink="http://www.w3.org/1999/xlink" width="150" height="150" viewBox="0 0 150 150"><defs><style>.a{fill:#fff;}.b{clip-path:url(#a);}</style><clipPath id="a"><rect class="a" width="150" height="150" rx="4" transform="translate(22 30)"/></clipPath></defs><g class="b" transform="translate(-22 -30)"><g transform="translate(46.052 56.63)"><g transform="translate(9 3)"><path d="M60.126,3H38.971a5.289,5.289,0,0,0-5.289,5.289v4.866a3.649,3.649,0,0,0-.881,0,4.478,4.478,0,0,0-4.407,4.46v11.83H19.578A5.289,5.289,0,1,0,9,29.445V40.022a5.289,5.289,0,0,0,10.578,0h8.815V53.086A4.5,4.5,0,0,0,32.8,57.652h5.289a.987.987,0,0,1,.881,1.058V75.9a4.548,4.548,0,0,0,4.407,4.672h.881V91.149a3.526,3.526,0,0,0,3.526,3.526v8.815a1.763,1.763,0,0,0,3.526,0V94.675a3.526,3.526,0,0,0,3.526-3.526V80.571h.881A4.548,4.548,0,0,0,60.126,75.9V58.71a.987.987,0,0,1,.881-1.058H66.3A4.5,4.5,0,0,0,70.7,53.086V40.022h8.815a5.289,5.289,0,0,0,10.578,0V29.445a5.289,5.289,0,1,0-10.578,0H70.7V17.615A4.478,4.478,0,0,0,66.3,13.067a3.649,3.649,0,0,0-.881,0V8.289A5.289,5.289,0,0,0,60.126,3ZM37.208,8.289a1.763,1.763,0,0,1,1.763-1.763H60.126a1.763,1.763,0,0,1,1.763,1.763v14.1a1.763,1.763,0,0,1-1.763,1.763H38.971a1.763,1.763,0,0,1-1.763-1.763ZM16.052,40.022a1.763,1.763,0,1,1-3.526,0V29.445a1.763,1.763,0,1,1,3.526,0ZM19.578,36.5V32.971h8.815V36.5ZM51.311,91.149H47.785V80.571h3.526Zm31.734-61.7a1.763,1.763,0,1,1,3.526,0V40.022a1.763,1.763,0,1,1-3.526,0Zm-3.526,3.526V36.5H70.7V32.971ZM66.3,16.593a.952.952,0,0,1,.882,1.023V53.086a.97.97,0,0,1-.881,1.04H61.008A4.548,4.548,0,0,0,56.6,58.8V75.987a.987.987,0,0,1-.881,1.058H43.378a.987.987,0,0,1-.881-1.058V58.8a4.548,4.548,0,0,0-4.407-4.672H32.8a.97.97,0,0,1-.881-1.04V17.615a.9.9,0,1,1,1.763,0v4.778a5.289,5.289,0,0,0,5.289,5.289H60.126a5.289,5.289,0,0,0,5.289-5.289V17.615a.952.952,0,0,1,.881-1.023ZM59.033,31.208H40.081a4.637,4.637,0,0,0-4.637,4.637v8.374a4.637,4.637,0,0,0,4.637,4.619H59.033a4.637,4.637,0,0,0,4.619-4.619V35.844a4.637,4.637,0,0,0-4.619-4.637Zm1.093,13.011a1.093,1.093,0,0,1-1.093,1.093H40.081a1.111,1.111,0,0,1-1.111-1.093V35.844a1.111,1.111,0,0,1,1.111-1.111H59.033a1.111,1.111,0,0,1,1.093,1.111Z" transform="translate(-9 -3)"/></g></g></g></svg>