<svg xmlns="http://www.w3.org/2000/svg" xmlns:xlink="http://www.w3.org/1999/xlink" width="150" height="150" viewBox="0 0 150 150"><defs><style>.a{fill:#fff;}.b{clip-path:url(#a);}.c{stroke:#000;}</style><clipPath id="a"><rect class="a" width="150" height="150" rx="4" transform="translate(22 30)"/></clipPath></defs><g class="b" transform="translate(-22 -30)"><g transform="translate(59.162 63.371)"><g transform="translate(3.5 0.497)"><path class="c" d="M26.089,22.5H16.677A1.177,1.177,0,0,0,15.5,23.677V42.5a1.177,1.177,0,0,0,1.177,1.177h9.412A1.177,1.177,0,0,0,27.265,42.5V23.677A1.177,1.177,0,0,0,26.089,22.5ZM24.912,41.324H17.853V24.853h7.059Z" transform="translate(12.736 29.272)"/><path class="c" d="M15.5,15.677v9.412a1.177,1.177,0,0,0,1.177,1.177h9.412a1.177,1.177,0,0,0,1.177-1.177V15.677A1.177,1.177,0,0,0,26.089,14.5H16.677A1.177,1.177,0,0,0,15.5,15.677Zm2.353,1.177h7.059v7.059H17.853Z" transform="translate(12.736 18.448)"/><path class="c" d="M65.855,5.209H43.384a5.883,5.883,0,0,0-11.53,0H9.383a5.883,5.883,0,1,0,0,11.765H31.736v7.059h-3.53a5.883,5.883,0,0,0-5.883,5.883V71.094H21.148a5.883,5.883,0,1,0,0,11.765H54.09a5.883,5.883,0,0,0,0-11.765H52.913V29.916a5.883,5.883,0,0,0-5.883-5.883H43.5V16.975H65.855a5.883,5.883,0,0,0,0-11.765Zm0,9.412H42.325A1.177,1.177,0,0,0,41.148,15.8V25.21a1.177,1.177,0,0,0,1.177,1.177h4.706a3.53,3.53,0,0,1,3.53,3.53V72.271a1.177,1.177,0,0,0,1.177,1.177H54.09a3.53,3.53,0,0,1,0,7.059H21.148a3.53,3.53,0,1,1,0-7.059H23.5a1.177,1.177,0,0,0,1.177-1.177V29.916a3.53,3.53,0,0,1,3.53-3.53h4.706a1.177,1.177,0,0,0,1.177-1.177V15.8a1.177,1.177,0,0,0-1.177-1.177H9.383a3.53,3.53,0,1,1,0-7.059h23.53a1.177,1.177,0,0,0,1.177-1.177,3.53,3.53,0,0,1,7.059,0,1.177,1.177,0,0,0,1.177,1.177h23.53a3.53,3.53,0,1,1,0,7.059Z" transform="translate(-3.5 -0.497)"/></g></g></g></svg>