<svg xmlns="http://www.w3.org/2000/svg" xmlns:xlink="http://www.w3.org/1999/xlink" width="150" height="150" viewBox="0 0 150 150"><defs><style>.a{fill:#fff;}.b{clip-path:url(#a);}</style><clipPath id="a"><rect class="a" width="150" height="150" rx="4" transform="translate(22 30)"/></clipPath></defs><g class="b" transform="translate(-22 -30)"><g transform="translate(44.529 54.707)"><path d="M100.439,18.89a1.89,1.89,0,0,0-2.487,0L92.77,24.176l-7.255-2.487-1.866-7.255,5.182-5.7,7.151,2.073a1.773,1.773,0,0,0,.933-3.42L88.831,5a1.632,1.632,0,0,0-1.762.518l-4.456,4.871-30.47,5.6A16.9,16.9,0,0,0,24.782,29.254c0,.622.1,1.347.1,1.969L23.021,53.3H21.777a3.118,3.118,0,0,0-3.109,3.109v1.866A11.515,11.515,0,0,0,17.009,59l-1.347-1.347a3.224,3.224,0,0,0-4.456,0L6.956,61.9a3.047,3.047,0,0,0-.933,2.28,3.215,3.215,0,0,0,.933,2.28L8.2,68.015c-.207.518-.518,1.14-.725,1.658H5.609A3.118,3.118,0,0,0,2.5,72.783V78.9a3.118,3.118,0,0,0,3.109,3.109H7.475c.311.622.518,1.244.725,1.762L6.853,85.116A3.047,3.047,0,0,0,5.92,87.4a3.215,3.215,0,0,0,.933,2.28L11.1,93.925a3.047,3.047,0,0,0,2.28.933h0a2.823,2.823,0,0,0,2.176-.933l1.347-1.347c.518.207,1.14.518,1.658.725v1.866a3.118,3.118,0,0,0,3.109,3.109h6.218A3.118,3.118,0,0,0,31,95.169V93.3a11.516,11.516,0,0,0,1.658-.725l1.347,1.347a3.224,3.224,0,0,0,4.456,0l4.249-4.249a3.253,3.253,0,0,0,0-4.56l-1.347-1.347c.207-.518.518-1.14.725-1.658h1.866A3.118,3.118,0,0,0,47.065,79V77.757H66.549A4.221,4.221,0,0,0,69.865,76.2a3.991,3.991,0,0,0,.829-3.524l-1.347-7.255A4.223,4.223,0,0,0,65.2,62H61.056l-2.28-26.532,27.879-9.535v-.1l6.115,2.073a1.127,1.127,0,0,0,.518.1,1.716,1.716,0,0,0,1.244-.518l5.907-6.011A1.814,1.814,0,0,0,100.439,18.89Zm-58.763-2.9A13.369,13.369,0,1,1,28.306,29.358,13.4,13.4,0,0,1,41.676,15.989ZM27.684,39a16.852,16.852,0,0,0,27.775-.1L57.429,62H42.608l-4.146-4.146a3.331,3.331,0,0,0-4.456,0l-1.347,1.347c-.518-.207-1.14-.518-1.658-.725V56.615a3.118,3.118,0,0,0-3.109-3.109H26.544Zm15.96,39.487h-2.8a1.68,1.68,0,0,0-1.658,1.244,15.859,15.859,0,0,1-1.347,3.316,1.585,1.585,0,0,0,.311,2.073l1.969,1.969-3.835,3.938-1.969-1.969a1.737,1.737,0,0,0-2.073-.311,13.121,13.121,0,0,1-3.316,1.347,1.774,1.774,0,0,0-1.244,1.658v2.8H22.3v-2.8a1.68,1.68,0,0,0-1.244-1.658,18.531,18.531,0,0,1-3.316-1.347,1.585,1.585,0,0,0-2.073.311l-2.28,2.073L9.547,87.292l1.969-1.969a1.737,1.737,0,0,0,.311-2.073,13.121,13.121,0,0,1-1.347-3.316,1.663,1.663,0,0,0-1.658-1.347h-2.8V73.2h2.8a1.68,1.68,0,0,0,1.658-1.244,18.53,18.53,0,0,1,1.347-3.316,1.585,1.585,0,0,0-.311-2.073L9.547,64.6l3.835-3.835,1.969,1.969a1.737,1.737,0,0,0,2.073.311,13.121,13.121,0,0,1,3.316-1.347,1.774,1.774,0,0,0,1.244-1.658v-2.8h5.389v2.8a1.68,1.68,0,0,0,1.244,1.658,15.859,15.859,0,0,1,3.316,1.347,1.585,1.585,0,0,0,2.073-.311l1.969-1.969L39.81,64.6l-1.969,1.969a1.737,1.737,0,0,0-.311,2.073,13.121,13.121,0,0,1,1.347,3.316A1.774,1.774,0,0,0,40.536,73.2h2.8v5.286ZM65.2,65.528a.889.889,0,0,1,.725.622L67.378,73.2c.1.311-.1.518-.1.622a.881.881,0,0,1-.518.311H47.168V72.783a3.118,3.118,0,0,0-3.109-3.109H42.194a11.516,11.516,0,0,0-.725-1.658l1.347-1.347a4.28,4.28,0,0,0,.725-1.14ZM58.465,31.845l-.1-.518a11.9,11.9,0,0,0,.1-1.969A17.054,17.054,0,0,0,54.941,19.1l24.977-4.56,2.384,9.12Z"/><path d="M40.515,34.929a6.115,6.115,0,1,0,0-12.229,6.115,6.115,0,1,0,0,12.229Zm0-8.809a2.591,2.591,0,0,1,0,5.182,2.632,2.632,0,0,1-2.591-2.591A2.447,2.447,0,0,1,40.515,26.12Z" transform="translate(1.161 0.647)"/><path d="M24.349,63.8A9.949,9.949,0,1,0,34.3,73.749,9.952,9.952,0,0,0,24.349,63.8Zm0,16.375a6.426,6.426,0,1,1,6.426-6.426A6.392,6.392,0,0,1,24.349,80.175Z" transform="translate(0.433 2.143)"/></g></g></svg>