<svg xmlns="http://www.w3.org/2000/svg" xmlns:xlink="http://www.w3.org/1999/xlink" width="150" height="150" viewBox="0 0 150 150"><defs><style>.a{fill:#fff;}.b{clip-path:url(#a);}.c{fill-rule:evenodd;}</style><clipPath id="a"><rect class="a" width="150" height="150" rx="4" transform="translate(22 30)"/></clipPath></defs><g class="b" transform="translate(-22 -30)"><g transform="translate(127.211 56.63) rotate(90)"><path class="c" d="M62.011,35.531H40.651a1.609,1.609,0,1,1,0-3.219H60.4V16.219H39.822a1.609,1.609,0,0,1,0-3.219H62.011a1.608,1.608,0,0,1,1.609,1.609V33.922A1.608,1.608,0,0,1,62.011,35.531Z" transform="translate(23.286 7.922)"/><path class="c" d="M29.262,35.531H7.609A1.608,1.608,0,0,1,6,33.922V14.609A1.608,1.608,0,0,1,7.609,13H29.8a1.609,1.609,0,1,1,0,3.219H9.219V32.313H29.262a1.609,1.609,0,1,1,0,3.219" transform="translate(3.656 7.922)"/><path class="c" d="M33.047,18.219a4.828,4.828,0,1,0,4.828,4.828,4.834,4.834,0,0,0-4.828-4.828m0,12.875a8.047,8.047,0,1,1,8.047-8.047,8.056,8.056,0,0,1-8.047,8.047" transform="translate(15.234 9.141)"/><path class="c" d="M3.219,38.969H9.656V13.219H3.219Zm8.047,3.219H1.609A1.608,1.608,0,0,1,0,40.578V11.609A1.608,1.608,0,0,1,1.609,10h9.656a1.608,1.608,0,0,1,1.609,1.609V40.578a1.608,1.608,0,0,1-1.609,1.609Z" transform="translate(0 6.094)"/><path class="c" d="M55.219,38.969h6.438V13.219H55.219Zm8.047,3.219H53.609A1.608,1.608,0,0,1,52,40.578V11.609A1.608,1.608,0,0,1,53.609,10h9.656a1.608,1.608,0,0,1,1.609,1.609V40.578a1.608,1.608,0,0,1-1.609,1.609Z" transform="translate(31.688 6.094)"/><path class="c" d="M31.828,24.141a7.793,7.793,0,0,1,1.609.167V4.828a1.609,1.609,0,0,0-3.219,0v19.48a7.793,7.793,0,0,1,1.609-.167Zm4.828,5.3-2.419-1.407a4.653,4.653,0,0,0-4.818,0L27,29.44V4.828a4.828,4.828,0,0,1,9.656,0Z" transform="translate(16.453)"/><path class="c" d="M35.25,27.054,52.8,41.779a1.608,1.608,0,1,0,2.068-2.464v0L37.489,24.733a8.075,8.075,0,0,1-2.239,2.321M53.826,45.375a4.787,4.787,0,0,1-3.095-1.13L28.819,25.861l3.064-.766a4.811,4.811,0,0,0,3.465-3.386l.666-2.416L56.937,36.85a4.825,4.825,0,0,1-2.681,8.506q-.215.019-.43.019" transform="translate(17.562 11.757)"/><path class="c" d="M33.8,24.8,16.611,39.22a1.61,1.61,0,0,0,2.07,2.466l17.41-14.61A8.044,8.044,0,0,1,33.8,24.8M17.656,45.281c-.143,0-.285-.006-.43-.019a4.827,4.827,0,0,1-2.683-8.506L35.167,19.448l.718,2.309a4.812,4.812,0,0,0,3.576,3.3l3.23.686L20.75,44.149a4.789,4.789,0,0,1-3.095,1.131" transform="translate(7.813 11.851)"/><path class="c" d="M45.372,37.22l-2.747-1.675A16.054,16.054,0,0,0,31.819,11.371L32.4,8.207A19.27,19.27,0,0,1,45.372,37.22" transform="translate(19.39 5.001)"/><path class="c" d="M34.4,34.5a19.143,19.143,0,0,1-11.629-3.917l1.943-2.567a16,16,0,0,0,19.514-.106L46.2,30.451A19.123,19.123,0,0,1,34.4,34.5" transform="translate(13.878 17.005)"/><path class="c" d="M20.94,37.4A19.274,19.274,0,0,1,33.8,8.207l.583,3.166A16.056,16.056,0,0,0,23.668,35.69Z" transform="translate(10.969 5.001)"/></g></g></svg>