<svg xmlns="http://www.w3.org/2000/svg" xmlns:xlink="http://www.w3.org/1999/xlink" width="150" height="150" viewBox="0 0 150 150"><defs><style>.a{fill:#fff;}.b{clip-path:url(#a);}</style><clipPath id="a"><rect class="a" width="150" height="150" rx="4" transform="translate(22 30)"/></clipPath></defs><g class="b" transform="translate(-22 -30)"><g transform="translate(47.868 63.868)"><path d="M14.626,46a8.626,8.626,0,1,0,8.626,8.626A8.626,8.626,0,0,0,14.626,46Zm0,14.377a5.751,5.751,0,1,1,5.751-5.751A5.751,5.751,0,0,1,14.626,60.377Z" transform="translate(-0.249 17.26)"/><path d="M63.822,2A24.476,24.476,0,0,0,39.381,26.441c0,.359.043.7.058,1.064l-23.191,32A14.377,14.377,0,1,0,30.755,73.886L61.579,50.768c.748.072,1.481.115,2.243.115A24.441,24.441,0,0,0,63.822,2ZM39.956,31.675a22.836,22.836,0,0,0,1.05,3.451L22.387,60.846a14.784,14.784,0,0,0-2.847-.978Zm2.415,6.47a24.677,24.677,0,0,0,9.144,9.374L27.865,65.274a14.6,14.6,0,0,0-2.99-2.962ZM16.377,85.388a11.5,11.5,0,1,1,11.5-11.5,11.5,11.5,0,0,1-11.5,11.5ZM30.352,70.594a13.907,13.907,0,0,0-.992-2.847L54.376,48.985a25.149,25.149,0,0,0,3.336,1.093Zm33.47-22.587A21.566,21.566,0,1,1,85.388,26.441,21.566,21.566,0,0,1,63.822,48.007Z" transform="translate(-2 -2)"/><path d="M50.69,6a18.69,18.69,0,1,0,18.69,18.69A18.69,18.69,0,0,0,50.69,6Zm0,34.505A15.815,15.815,0,1,1,66.505,24.69,15.815,15.815,0,0,1,50.69,40.505Z" transform="translate(11.132 -0.249)"/><path d="M46.313,18.626A4.313,4.313,0,1,0,42,14.313,4.313,4.313,0,0,0,46.313,18.626Zm0-5.751a1.438,1.438,0,1,1-1.438,1.438A1.438,1.438,0,0,1,46.313,12.875Z" transform="translate(15.509 1.502)"/><path d="M52.313,16a4.313,4.313,0,1,0,4.313,4.313A4.313,4.313,0,0,0,52.313,16Zm0,5.751a1.438,1.438,0,1,1,1.438-1.438A1.438,1.438,0,0,1,52.313,21.751Z" transform="translate(18.135 4.128)"/><path d="M46.313,22a4.313,4.313,0,1,0,4.313,4.313A4.313,4.313,0,0,0,46.313,22Zm0,5.751a1.438,1.438,0,1,1,1.438-1.438A1.438,1.438,0,0,1,46.313,27.751Z" transform="translate(15.509 6.755)"/><path d="M40.313,16a4.313,4.313,0,1,0,4.313,4.313A4.313,4.313,0,0,0,40.313,16Zm0,5.751a1.438,1.438,0,1,1,1.438-1.438A1.438,1.438,0,0,1,40.313,21.751Z" transform="translate(12.883 4.128)"/></g></g></svg>