<svg xmlns="http://www.w3.org/2000/svg" xmlns:xlink="http://www.w3.org/1999/xlink" width="150" height="150" viewBox="0 0 150 150"><defs><style>.a{fill:#fff;}.b{clip-path:url(#a);}.c{stroke:#000;}</style><clipPath id="a"><rect class="a" width="150" height="150" rx="4" transform="translate(22 30)"/></clipPath></defs><g class="b" transform="translate(-22 -30)"><g transform="translate(47.361 52.041)"><path class="c" d="M85.825,44.121H60.814L58.9,40.476a1.113,1.113,0,0,0-.985-.6H55.667V33.3l13.079,1.041a5.561,5.561,0,1,0,0-11.122q-.044,0-.088,0l-13.039,1.04a6.023,6.023,0,0,0-11.96,0L30.531,23.215a5.56,5.56,0,1,0,.081,11.119h.007L43.61,33.3v6.585H41.361a1.113,1.113,0,0,0-.985.6l-1.913,3.644H13.452c-5.438,0-9.7,7.2-9.7,16.389S8.014,76.9,13.452,76.9H85.825c5.438,0,9.7-7.2,9.7-16.389S91.264,44.121,85.825,44.121ZM49.639,21.184a3.8,3.8,0,0,1,3.748,3.253l-3.748.3-3.748-.3A3.8,3.8,0,0,1,49.639,21.184ZM30.531,32.112a3.338,3.338,0,0,1-.088-6.675l19.107,1.524a1.19,1.19,0,0,0,.176,0L68.787,25.44a3.338,3.338,0,0,1,.047,6.675L49.727,30.59c-.029,0-.059,0-.088,0s-.059,0-.088,0Zm22.911,1.006v6.763H45.835V33.119l3.8-.3ZM42.034,42.106H57.243L58.3,44.121H40.977ZM13.452,74.673c-4.051,0-7.474-6.486-7.474-14.164S9.4,46.346,13.452,46.346a5.324,5.324,0,0,1,4.007,2.3c-3.477.923-6.057,5.8-6.057,11.867s2.58,10.944,6.058,11.867A5.325,5.325,0,0,1,13.452,74.673Zm5.333-23.965a21.974,21.974,0,0,1,2.141,9.8,21.978,21.978,0,0,1-2.139,9.8c-.044,0-.088.016-.132.016-2.726,0-5.029-4.493-5.029-9.812C13.627,55.111,16.038,50.559,18.785,50.708Zm-.4,23.965c2.872-2.815,4.769-8.04,4.769-14.164s-1.9-11.349-4.769-14.164H80.9c-2.872,2.815-4.769,8.04-4.769,14.164s1.9,11.349,4.769,14.164ZM85.65,60.51c0,5.319-2.3,9.812-5.029,9.812-.044,0-.088-.014-.132-.016a21.978,21.978,0,0,1-2.139-9.8,21.973,21.973,0,0,1,2.142-9.8C83.225,50.554,85.65,55.111,85.65,60.51Zm.175,14.164a5.325,5.325,0,0,1-4.008-2.3c3.478-.922,6.058-5.8,6.058-11.867S85.3,49.565,81.818,48.642a5.324,5.324,0,0,1,4.007-2.3c4.051,0,7.474,6.486,7.474,14.164S89.876,74.673,85.825,74.673Z"/></g></g></svg>