<svg xmlns="http://www.w3.org/2000/svg" xmlns:xlink="http://www.w3.org/1999/xlink" width="150" height="150" viewBox="0 0 150 150"><defs><style>.a{fill:#fff;}.b{clip-path:url(#a);}</style><clipPath id="a"><rect class="a" width="150" height="150" rx="4" transform="translate(22 30)"/></clipPath></defs><g class="b" transform="translate(-22 -30)"><path d="M22.911,16A10.911,10.911,0,1,0,33.821,26.911,10.915,10.915,0,0,0,22.911,16Zm0,17.457a6.546,6.546,0,1,1,6.546-6.546A6.566,6.566,0,0,1,22.911,33.457Z" transform="translate(50.86 60.723)"/><path d="M95.466,49.278V18.728a6.546,6.546,0,1,0-13.093,0v.284l-13.245,1.9h-7.2a26.751,26.751,0,0,1-16.846-5.586A24.006,24.006,0,1,0,26.62,57.767l5.652,34.128a6.233,6.233,0,0,0,6.044,5.412h11.74a6.007,6.007,0,0,0,4.517-2.117,6.943,6.943,0,0,0,1.506-5.7l-6.437-39.54A27.936,27.936,0,0,1,61.818,47.1h7.31l13.245,1.9v.284a6.546,6.546,0,1,0,13.093,0ZM51.758,90.171a2.691,2.691,0,0,1-.524,2.16,1.588,1.588,0,0,1-1.2.589H38.294a1.926,1.926,0,0,1-1.746-1.746l-.764-4.8H51.147ZM50.427,82.01H35.043L31.072,57.963a24.035,24.035,0,0,0,13.573-4.932c.305-.24.655-.458.96-.676ZM82.373,44.587,69.586,42.754a1.441,1.441,0,0,0-.305-.022H61.818a32.391,32.391,0,0,0-15.646,4.1.948.948,0,0,0-.153.087,34.654,34.654,0,0,0-4.037,2.64A19.639,19.639,0,0,1,15.36,20.911,19.73,19.73,0,0,1,30,14.364a19.344,19.344,0,0,1,12.329,4.364,31.092,31.092,0,0,0,19.6,6.546H69.28a1.441,1.441,0,0,0,.305-.022L82.373,23.42Zm4.364,4.692V18.728a2.182,2.182,0,0,1,4.364,0v30.55a2.182,2.182,0,0,1-4.364,0Z" transform="translate(43.769 53.63)"/><path d="M50.453,22.729a2.2,2.2,0,0,0,1.091-.284l7.55-4.364a2.19,2.19,0,0,0-2.182-3.8l-7.55,4.364a2.184,2.184,0,0,0,1.091,4.081Z" transform="translate(93.735 58.358)"/><path d="M50.182,24.364h8.728a2.182,2.182,0,0,0,0-4.364H50.182a2.182,2.182,0,0,0,0,4.364Z" transform="translate(93.417 65.452)"/><path d="M59.1,28.664,51.549,24.3a2.19,2.19,0,0,0-2.182,3.8l7.55,4.364a2.19,2.19,0,0,0,2.182-3.8Z" transform="translate(93.73 70.186)"/></g></svg>