<svg xmlns="http://www.w3.org/2000/svg" width="36.771" height="40.059" viewBox="0 0 36.771 40.059"><defs><style>.a{fill:none;stroke:#000;stroke-linecap:round;stroke-linejoin:round;stroke-width:4px;}</style></defs><g transform="translate(2.249 2.059)"><path class="a" d="M36.774,28.1V13.757a3.586,3.586,0,0,0-1.793-3.1L22.43,3.484a3.586,3.586,0,0,0-3.586,0L6.293,10.656a3.586,3.586,0,0,0-1.793,3.1V28.1a3.586,3.586,0,0,0,1.793,3.1l12.551,7.172a3.586,3.586,0,0,0,3.586,0L34.981,31.2a3.586,3.586,0,0,0,1.793-3.1Z" transform="translate(-4.5 -3.003)"/><path class="a" d="M4.9,10.44l15.653,9.055L36.211,10.44" transform="translate(-4.421 -1.55)"/><path class="a" d="M18,36.074V18" transform="translate(-1.863 -0.074)"/></g></svg>