<svg xmlns="http://www.w3.org/2000/svg" width="45" height="45" viewBox="0 0 45 45"><defs><style>.a{fill:#fff;}.b{fill:none;stroke:#19c1c3;stroke-linecap:round;stroke-linejoin:round;stroke-width:2px;}</style></defs><g transform="translate(-686 -9808)"><circle class="a" cx="22.5" cy="22.5" r="22.5" transform="translate(686 9808)"/><path class="b" d="M19.136,14.979v2.409a1.606,1.606,0,0,1-1.75,1.606,15.889,15.889,0,0,1-6.929-2.465,15.656,15.656,0,0,1-4.817-4.817A15.889,15.889,0,0,1,3.174,4.75,1.606,1.606,0,0,1,4.772,3H7.181A1.606,1.606,0,0,1,8.787,4.381a10.309,10.309,0,0,0,.562,2.256,1.606,1.606,0,0,1-.361,1.694l-1.02,1.02a12.846,12.846,0,0,0,4.817,4.817l1.02-1.02a1.606,1.606,0,0,1,1.694-.361,10.309,10.309,0,0,0,2.256.562,1.606,1.606,0,0,1,1.381,1.63Z" transform="translate(697.348 9820)"/></g></svg>